<svg width="302" height="56" viewBox="0 0 302 56" fill="none" xmlns="http://www.w3.org/2000/svg">
<path d="M65.812 41.965V43.174H63.407V51H61.925V43.174H59.507V41.965H65.812ZM68.7949 44.877C69.0116 44.513 69.2976 44.2313 69.6529 44.032C70.0169 43.824 70.4459 43.72 70.9399 43.72V45.254H70.5629C69.9822 45.254 69.5402 45.4013 69.2369 45.696C68.9422 45.9907 68.7949 46.502 68.7949 47.23V51H67.3129V43.837H68.7949V44.877ZM71.8081 47.386C71.8081 46.6667 71.9555 46.0297 72.2501 45.475C72.5535 44.9203 72.9608 44.4913 73.4721 44.188C73.9921 43.876 74.5641 43.72 75.1881 43.72C75.7515 43.72 76.2411 43.8327 76.6571 44.058C77.0818 44.2747 77.4198 44.5477 77.6711 44.877V43.837H79.1661V51H77.6711V49.934C77.4198 50.272 77.0775 50.5537 76.6441 50.779C76.2108 51.0043 75.7168 51.117 75.1621 51.117C74.5468 51.117 73.9835 50.961 73.4721 50.649C72.9608 50.3283 72.5535 49.8863 72.2501 49.323C71.9555 48.751 71.8081 48.1053 71.8081 47.386ZM77.6711 47.412C77.6711 46.918 77.5671 46.489 77.3591 46.125C77.1598 45.761 76.8955 45.4837 76.5661 45.293C76.2368 45.1023 75.8815 45.007 75.5001 45.007C75.1188 45.007 74.7635 45.1023 74.4341 45.293C74.1048 45.475 73.8361 45.748 73.6281 46.112C73.4288 46.4673 73.3291 46.892 73.3291 47.386C73.3291 47.88 73.4288 48.3133 73.6281 48.686C73.8361 49.0587 74.1048 49.3447 74.4341 49.544C74.7721 49.7347 75.1275 49.83 75.5001 49.83C75.8815 49.83 76.2368 49.7347 76.5661 49.544C76.8955 49.3533 77.1598 49.076 77.3591 48.712C77.5671 48.3393 77.6711 47.906 77.6711 47.412ZM84.7267 43.72C85.29 43.72 85.7927 43.837 86.2347 44.071C86.6854 44.305 87.0364 44.6517 87.2877 45.111C87.539 45.5703 87.6647 46.125 87.6647 46.775V51H86.1957V46.996C86.1957 46.3547 86.0354 45.865 85.7147 45.527C85.394 45.1803 84.9564 45.007 84.4017 45.007C83.847 45.007 83.405 45.1803 83.0757 45.527C82.755 45.865 82.5947 46.3547 82.5947 46.996V51H81.1127V43.837H82.5947V44.656C82.8374 44.3613 83.145 44.1317 83.5177 43.967C83.899 43.8023 84.302 43.72 84.7267 43.72ZM92.1551 51.117C91.5917 51.117 91.0847 51.0173 90.6341 50.818C90.1921 50.61 89.8411 50.3327 89.5811 49.986C89.3211 49.6307 89.1824 49.2363 89.1651 48.803H90.6991C90.7251 49.1063 90.8681 49.362 91.1281 49.57C91.3967 49.7693 91.7304 49.869 92.1291 49.869C92.5451 49.869 92.8657 49.791 93.0911 49.635C93.3251 49.4703 93.4421 49.2623 93.4421 49.011C93.4421 48.7423 93.3121 48.543 93.0521 48.413C92.8007 48.283 92.3977 48.14 91.8431 47.984C91.3057 47.8367 90.8681 47.6937 90.5301 47.555C90.1921 47.4163 89.8974 47.204 89.6461 46.918C89.4034 46.632 89.2821 46.255 89.2821 45.787C89.2821 45.4057 89.3947 45.059 89.6201 44.747C89.8454 44.4263 90.1661 44.175 90.5821 43.993C91.0067 43.811 91.4921 43.72 92.0381 43.72C92.8527 43.72 93.5071 43.928 94.0011 44.344C94.5037 44.7513 94.7724 45.3103 94.8071 46.021H93.3251C93.2991 45.7003 93.1691 45.4447 92.9351 45.254C92.7011 45.0633 92.3847 44.968 91.9861 44.968C91.5961 44.968 91.2971 45.0417 91.0891 45.189C90.8811 45.3363 90.7771 45.5313 90.7771 45.774C90.7771 45.9647 90.8464 46.125 90.9851 46.255C91.1237 46.385 91.2927 46.489 91.4921 46.567C91.6914 46.6363 91.9861 46.7273 92.3761 46.84C92.8961 46.9787 93.3207 47.1217 93.6501 47.269C93.9881 47.4077 94.2784 47.6157 94.5211 47.893C94.7637 48.1703 94.8894 48.5387 94.8981 48.998C94.8981 49.4053 94.7854 49.7693 94.5601 50.09C94.3347 50.4107 94.0141 50.662 93.5981 50.844C93.1907 51.026 92.7097 51.117 92.1551 51.117ZM97.9814 41.38V51H96.4994V41.38H97.9814ZM99.4331 47.386C99.4331 46.6667 99.5805 46.0297 99.8751 45.475C100.178 44.9203 100.586 44.4913 101.097 44.188C101.617 43.876 102.189 43.72 102.813 43.72C103.376 43.72 103.866 43.8327 104.282 44.058C104.707 44.2747 105.045 44.5477 105.296 44.877V43.837H106.791V51H105.296V49.934C105.045 50.272 104.702 50.5537 104.269 50.779C103.836 51.0043 103.342 51.117 102.787 51.117C102.172 51.117 101.608 50.961 101.097 50.649C100.586 50.3283 100.178 49.8863 99.8751 49.323C99.5805 48.751 99.4331 48.1053 99.4331 47.386ZM105.296 47.412C105.296 46.918 105.192 46.489 104.984 46.125C104.785 45.761 104.52 45.4837 104.191 45.293C103.862 45.1023 103.506 45.007 103.125 45.007C102.744 45.007 102.388 45.1023 102.059 45.293C101.73 45.475 101.461 45.748 101.253 46.112C101.054 46.4673 100.954 46.892 100.954 47.386C100.954 47.88 101.054 48.3133 101.253 48.686C101.461 49.0587 101.73 49.3447 102.059 49.544C102.397 49.7347 102.752 49.83 103.125 49.83C103.506 49.83 103.862 49.7347 104.191 49.544C104.52 49.3533 104.785 49.076 104.984 48.712C105.192 48.3393 105.296 47.906 105.296 47.412ZM110.467 45.046V49.011C110.467 49.2797 110.527 49.4747 110.649 49.596C110.779 49.7087 110.995 49.765 111.299 49.765H112.209V51H111.039C110.371 51 109.86 50.844 109.505 50.532C109.149 50.22 108.972 49.713 108.972 49.011V45.046H108.127V43.837H108.972V42.056H110.467V43.837H112.209V45.046H110.467ZM120.14 47.243C120.14 47.5117 120.122 47.7543 120.088 47.971H114.615C114.658 48.543 114.87 49.0023 115.252 49.349C115.633 49.6957 116.101 49.869 116.656 49.869C117.453 49.869 118.016 49.5353 118.346 48.868H119.945C119.728 49.5267 119.334 50.0683 118.762 50.493C118.198 50.909 117.496 51.117 116.656 51.117C115.971 51.117 115.356 50.9653 114.81 50.662C114.272 50.35 113.848 49.9167 113.536 49.362C113.232 48.7987 113.081 48.1487 113.081 47.412C113.081 46.6753 113.228 46.0297 113.523 45.475C113.826 44.9117 114.246 44.4783 114.784 44.175C115.33 43.8717 115.954 43.72 116.656 43.72C117.332 43.72 117.934 43.8673 118.463 44.162C118.991 44.4567 119.403 44.8727 119.698 45.41C119.992 45.9387 120.14 46.5497 120.14 47.243ZM118.593 46.775C118.584 46.229 118.389 45.7913 118.008 45.462C117.626 45.1327 117.154 44.968 116.591 44.968C116.079 44.968 115.642 45.1327 115.278 45.462C114.914 45.7827 114.697 46.2203 114.628 46.775H118.593ZM131.54 47.243C131.54 47.5117 131.523 47.7543 131.488 47.971H126.015C126.058 48.543 126.271 49.0023 126.652 49.349C127.033 49.6957 127.501 49.869 128.056 49.869C128.853 49.869 129.417 49.5353 129.746 48.868H131.345C131.128 49.5267 130.734 50.0683 130.162 50.493C129.599 50.909 128.897 51.117 128.056 51.117C127.371 51.117 126.756 50.9653 126.21 50.662C125.673 50.35 125.248 49.9167 124.936 49.362C124.633 48.7987 124.481 48.1487 124.481 47.412C124.481 46.6753 124.628 46.0297 124.923 45.475C125.226 44.9117 125.647 44.4783 126.184 44.175C126.73 43.8717 127.354 43.72 128.056 43.72C128.732 43.72 129.334 43.8673 129.863 44.162C130.392 44.4567 130.803 44.8727 131.098 45.41C131.393 45.9387 131.54 46.5497 131.54 47.243ZM129.993 46.775C129.984 46.229 129.789 45.7913 129.408 45.462C129.027 45.1327 128.554 44.968 127.991 44.968C127.48 44.968 127.042 45.1327 126.678 45.462C126.314 45.7827 126.097 46.2203 126.028 46.775H129.993ZM136.612 43.72C137.176 43.72 137.678 43.837 138.12 44.071C138.571 44.305 138.922 44.6517 139.173 45.111C139.425 45.5703 139.55 46.125 139.55 46.775V51H138.081V46.996C138.081 46.3547 137.921 45.865 137.6 45.527C137.28 45.1803 136.842 45.007 136.287 45.007C135.733 45.007 135.291 45.1803 134.961 45.527C134.641 45.865 134.48 46.3547 134.48 46.996V51H132.998V43.837H134.48V44.656C134.723 44.3613 135.031 44.1317 135.403 43.967C135.785 43.8023 136.188 43.72 136.612 43.72ZM144.327 43.72C144.881 43.72 145.371 43.8327 145.796 44.058C146.229 44.2747 146.567 44.5477 146.81 44.877V43.837H148.305V51.117C148.305 51.7757 148.166 52.3607 147.889 52.872C147.611 53.392 147.208 53.7993 146.68 54.094C146.16 54.3887 145.536 54.536 144.808 54.536C143.837 54.536 143.031 54.3063 142.39 53.847C141.748 53.3963 141.384 52.781 141.298 52.001H142.767C142.879 52.3737 143.118 52.6727 143.482 52.898C143.854 53.132 144.296 53.249 144.808 53.249C145.406 53.249 145.887 53.067 146.251 52.703C146.623 52.339 146.81 51.8103 146.81 51.117V49.921C146.558 50.259 146.216 50.545 145.783 50.779C145.358 51.0043 144.873 51.117 144.327 51.117C143.703 51.117 143.131 50.961 142.611 50.649C142.099 50.3283 141.692 49.8863 141.389 49.323C141.094 48.751 140.947 48.1053 140.947 47.386C140.947 46.6667 141.094 46.0297 141.389 45.475C141.692 44.9203 142.099 44.4913 142.611 44.188C143.131 43.876 143.703 43.72 144.327 43.72ZM146.81 47.412C146.81 46.918 146.706 46.489 146.498 46.125C146.298 45.761 146.034 45.4837 145.705 45.293C145.375 45.1023 145.02 45.007 144.639 45.007C144.257 45.007 143.902 45.1023 143.573 45.293C143.243 45.475 142.975 45.748 142.767 46.112C142.567 46.4673 142.468 46.892 142.468 47.386C142.468 47.88 142.567 48.3133 142.767 48.686C142.975 49.0587 143.243 49.3447 143.573 49.544C143.911 49.7347 144.266 49.83 144.639 49.83C145.02 49.83 145.375 49.7347 145.705 49.544C146.034 49.3533 146.298 49.076 146.498 48.712C146.706 48.3393 146.81 47.906 146.81 47.412ZM151.733 41.38V51H150.251V41.38H151.733ZM154.433 42.888C154.164 42.888 153.939 42.797 153.757 42.615C153.575 42.433 153.484 42.2077 153.484 41.939C153.484 41.6703 153.575 41.445 153.757 41.263C153.939 41.081 154.164 40.99 154.433 40.99C154.693 40.99 154.914 41.081 155.096 41.263C155.278 41.445 155.369 41.6703 155.369 41.939C155.369 42.2077 155.278 42.433 155.096 42.615C154.914 42.797 154.693 42.888 154.433 42.888ZM155.161 43.837V51H153.679V43.837H155.161ZM159.707 51.117C159.144 51.117 158.637 51.0173 158.186 50.818C157.744 50.61 157.393 50.3327 157.133 49.986C156.873 49.6307 156.734 49.2363 156.717 48.803H158.251C158.277 49.1063 158.42 49.362 158.68 49.57C158.949 49.7693 159.282 49.869 159.681 49.869C160.097 49.869 160.418 49.791 160.643 49.635C160.877 49.4703 160.994 49.2623 160.994 49.011C160.994 48.7423 160.864 48.543 160.604 48.413C160.353 48.283 159.95 48.14 159.395 47.984C158.858 47.8367 158.42 47.6937 158.082 47.555C157.744 47.4163 157.449 47.204 157.198 46.918C156.955 46.632 156.834 46.255 156.834 45.787C156.834 45.4057 156.947 45.059 157.172 44.747C157.397 44.4263 157.718 44.175 158.134 43.993C158.559 43.811 159.044 43.72 159.59 43.72C160.405 43.72 161.059 43.928 161.553 44.344C162.056 44.7513 162.324 45.3103 162.359 46.021H160.877C160.851 45.7003 160.721 45.4447 160.487 45.254C160.253 45.0633 159.937 44.968 159.538 44.968C159.148 44.968 158.849 45.0417 158.641 45.189C158.433 45.3363 158.329 45.5313 158.329 45.774C158.329 45.9647 158.398 46.125 158.537 46.255C158.676 46.385 158.845 46.489 159.044 46.567C159.243 46.6363 159.538 46.7273 159.928 46.84C160.448 46.9787 160.873 47.1217 161.202 47.269C161.54 47.4077 161.83 47.6157 162.073 47.893C162.316 48.1703 162.441 48.5387 162.45 48.998C162.45 49.4053 162.337 49.7693 162.112 50.09C161.887 50.4107 161.566 50.662 161.15 50.844C160.743 51.026 160.262 51.117 159.707 51.117ZM167.756 43.72C168.302 43.72 168.788 43.837 169.212 44.071C169.646 44.305 169.984 44.6517 170.226 45.111C170.478 45.5703 170.603 46.125 170.603 46.775V51H169.134V46.996C169.134 46.3547 168.974 45.865 168.653 45.527C168.333 45.1803 167.895 45.007 167.34 45.007C166.786 45.007 166.344 45.1803 166.014 45.527C165.694 45.865 165.533 46.3547 165.533 46.996V51H164.051V41.38H165.533V44.669C165.785 44.3657 166.101 44.1317 166.482 43.967C166.872 43.8023 167.297 43.72 167.756 43.72ZM177.6 45.046V49.011C177.6 49.2797 177.66 49.4747 177.782 49.596C177.912 49.7087 178.128 49.765 178.432 49.765H179.342V51H178.172C177.504 51 176.993 50.844 176.638 50.532C176.282 50.22 176.105 49.713 176.105 49.011V45.046H175.26V43.837H176.105V42.056H177.6V43.837H179.342V45.046H177.6ZM183.814 51.117C183.138 51.117 182.527 50.9653 181.981 50.662C181.435 50.35 181.006 49.9167 180.694 49.362C180.382 48.7987 180.226 48.1487 180.226 47.412C180.226 46.684 180.387 46.0383 180.707 45.475C181.028 44.9117 181.466 44.4783 182.02 44.175C182.575 43.8717 183.195 43.72 183.879 43.72C184.564 43.72 185.184 43.8717 185.738 44.175C186.293 44.4783 186.731 44.9117 187.051 45.475C187.372 46.0383 187.532 46.684 187.532 47.412C187.532 48.14 187.368 48.7857 187.038 49.349C186.709 49.9123 186.258 50.35 185.686 50.662C185.123 50.9653 184.499 51.117 183.814 51.117ZM183.814 49.83C184.196 49.83 184.551 49.739 184.88 49.557C185.218 49.375 185.491 49.102 185.699 48.738C185.907 48.374 186.011 47.932 186.011 47.412C186.011 46.892 185.912 46.4543 185.712 46.099C185.513 45.735 185.249 45.462 184.919 45.28C184.59 45.098 184.235 45.007 183.853 45.007C183.472 45.007 183.117 45.098 182.787 45.28C182.467 45.462 182.211 45.735 182.02 46.099C181.83 46.4543 181.734 46.892 181.734 47.412C181.734 48.1833 181.929 48.7813 182.319 49.206C182.718 49.622 183.216 49.83 183.814 49.83ZM201.89 41.965V51H200.408V44.812L197.652 51H196.625L193.856 44.812V51H192.374V41.965H193.973L197.145 49.05L200.304 41.965H201.89ZM204.592 42.888C204.324 42.888 204.098 42.797 203.916 42.615C203.734 42.433 203.643 42.2077 203.643 41.939C203.643 41.6703 203.734 41.445 203.916 41.263C204.098 41.081 204.324 40.99 204.592 40.99C204.852 40.99 205.073 41.081 205.255 41.263C205.437 41.445 205.528 41.6703 205.528 41.939C205.528 42.2077 205.437 42.433 205.255 42.615C205.073 42.797 204.852 42.888 204.592 42.888ZM205.32 43.837V51H203.838V43.837H205.32ZM210.88 43.72C211.443 43.72 211.946 43.837 212.388 44.071C212.839 44.305 213.19 44.6517 213.441 45.111C213.692 45.5703 213.818 46.125 213.818 46.775V51H212.349V46.996C212.349 46.3547 212.189 45.865 211.868 45.527C211.547 45.1803 211.11 45.007 210.555 45.007C210 45.007 209.558 45.1803 209.229 45.527C208.908 45.865 208.748 46.3547 208.748 46.996V51H207.266V43.837H208.748V44.656C208.991 44.3613 209.298 44.1317 209.671 43.967C210.052 43.8023 210.455 43.72 210.88 43.72ZM216.462 42.888C216.194 42.888 215.968 42.797 215.786 42.615C215.604 42.433 215.513 42.2077 215.513 41.939C215.513 41.6703 215.604 41.445 215.786 41.263C215.968 41.081 216.194 40.99 216.462 40.99C216.722 40.99 216.943 41.081 217.125 41.263C217.307 41.445 217.398 41.6703 217.398 41.939C217.398 42.2077 217.307 42.433 217.125 42.615C216.943 42.797 216.722 42.888 216.462 42.888ZM217.19 43.837V51H215.708V43.837H217.19ZM222.243 51.117C221.567 51.117 220.956 50.9653 220.41 50.662C219.864 50.35 219.435 49.9167 219.123 49.362C218.811 48.7987 218.655 48.1487 218.655 47.412C218.655 46.684 218.815 46.0383 219.136 45.475C219.457 44.9117 219.894 44.4783 220.449 44.175C221.004 43.8717 221.623 43.72 222.308 43.72C222.993 43.72 223.612 43.8717 224.167 44.175C224.722 44.4783 225.159 44.9117 225.48 45.475C225.801 46.0383 225.961 46.684 225.961 47.412C225.961 48.14 225.796 48.7857 225.467 49.349C225.138 49.9123 224.687 50.35 224.115 50.662C223.552 50.9653 222.928 51.117 222.243 51.117ZM222.243 49.83C222.624 49.83 222.98 49.739 223.309 49.557C223.647 49.375 223.92 49.102 224.128 48.738C224.336 48.374 224.44 47.932 224.44 47.412C224.44 46.892 224.34 46.4543 224.141 46.099C223.942 45.735 223.677 45.462 223.348 45.28C223.019 45.098 222.663 45.007 222.282 45.007C221.901 45.007 221.545 45.098 221.216 45.28C220.895 45.462 220.64 45.735 220.449 46.099C220.258 46.4543 220.163 46.892 220.163 47.412C220.163 48.1833 220.358 48.7813 220.748 49.206C221.147 49.622 221.645 49.83 222.243 49.83ZM231.04 43.72C231.604 43.72 232.106 43.837 232.548 44.071C232.999 44.305 233.35 44.6517 233.601 45.111C233.853 45.5703 233.978 46.125 233.978 46.775V51H232.509V46.996C232.509 46.3547 232.349 45.865 232.028 45.527C231.708 45.1803 231.27 45.007 230.715 45.007C230.161 45.007 229.719 45.1803 229.389 45.527C229.069 45.865 228.908 46.3547 228.908 46.996V51H227.426V43.837H228.908V44.656C229.151 44.3613 229.459 44.1317 229.831 43.967C230.213 43.8023 230.616 43.72 231.04 43.72ZM240.728 41.38V51H239.246V41.38H240.728ZM242.179 47.386C242.179 46.6667 242.327 46.0297 242.621 45.475C242.925 44.9203 243.332 44.4913 243.843 44.188C244.363 43.876 244.935 43.72 245.559 43.72C246.123 43.72 246.612 43.8327 247.028 44.058C247.453 44.2747 247.791 44.5477 248.042 44.877V43.837H249.537V51H248.042V49.934C247.791 50.272 247.449 50.5537 247.015 50.779C246.582 51.0043 246.088 51.117 245.533 51.117C244.918 51.117 244.355 50.961 243.843 50.649C243.332 50.3283 242.925 49.8863 242.621 49.323C242.327 48.751 242.179 48.1053 242.179 47.386ZM248.042 47.412C248.042 46.918 247.938 46.489 247.73 46.125C247.531 45.761 247.267 45.4837 246.937 45.293C246.608 45.1023 246.253 45.007 245.871 45.007C245.49 45.007 245.135 45.1023 244.805 45.293C244.476 45.475 244.207 45.748 243.999 46.112C243.8 46.4673 243.7 46.892 243.7 47.386C243.7 47.88 243.8 48.3133 243.999 48.686C244.207 49.0587 244.476 49.3447 244.805 49.544C245.143 49.7347 245.499 49.83 245.871 49.83C246.253 49.83 246.608 49.7347 246.937 49.544C247.267 49.3533 247.531 49.076 247.73 48.712C247.938 48.3393 248.042 47.906 248.042 47.412ZM255.098 43.72C255.661 43.72 256.164 43.837 256.606 44.071C257.056 44.305 257.407 44.6517 257.659 45.111C257.91 45.5703 258.036 46.125 258.036 46.775V51H256.567V46.996C256.567 46.3547 256.406 45.865 256.086 45.527C255.765 45.1803 255.327 45.007 254.773 45.007C254.218 45.007 253.776 45.1803 253.447 45.527C253.126 45.865 252.966 46.3547 252.966 46.996V51H251.484V43.837H252.966V44.656C253.208 44.3613 253.516 44.1317 253.889 43.967C254.27 43.8023 254.673 43.72 255.098 43.72ZM262.812 43.72C263.367 43.72 263.857 43.8327 264.281 44.058C264.715 44.2747 265.053 44.5477 265.295 44.877V43.837H266.79V51.117C266.79 51.7757 266.652 52.3607 266.374 52.872C266.097 53.392 265.694 53.7993 265.165 54.094C264.645 54.3887 264.021 54.536 263.293 54.536C262.323 54.536 261.517 54.3063 260.875 53.847C260.234 53.3963 259.87 52.781 259.783 52.001H261.252C261.365 52.3737 261.603 52.6727 261.967 52.898C262.34 53.132 262.782 53.249 263.293 53.249C263.891 53.249 264.372 53.067 264.736 52.703C265.109 52.339 265.295 51.8103 265.295 51.117V49.921C265.044 50.259 264.702 50.545 264.268 50.779C263.844 51.0043 263.358 51.117 262.812 51.117C262.188 51.117 261.616 50.961 261.096 50.649C260.585 50.3283 260.178 49.8863 259.874 49.323C259.58 48.751 259.432 48.1053 259.432 47.386C259.432 46.6667 259.58 46.0297 259.874 45.475C260.178 44.9203 260.585 44.4913 261.096 44.188C261.616 43.876 262.188 43.72 262.812 43.72ZM265.295 47.412C265.295 46.918 265.191 46.489 264.983 46.125C264.784 45.761 264.52 45.4837 264.19 45.293C263.861 45.1023 263.506 45.007 263.124 45.007C262.743 45.007 262.388 45.1023 262.058 45.293C261.729 45.475 261.46 45.748 261.252 46.112C261.053 46.4673 260.953 46.892 260.953 47.386C260.953 47.88 261.053 48.3133 261.252 48.686C261.46 49.0587 261.729 49.3447 262.058 49.544C262.396 49.7347 262.752 49.83 263.124 49.83C263.506 49.83 263.861 49.7347 264.19 49.544C264.52 49.3533 264.784 49.076 264.983 48.712C265.191 48.3393 265.295 47.906 265.295 47.412ZM275.224 43.837V51H273.742V50.155C273.508 50.4497 273.2 50.6837 272.819 50.857C272.446 51.0217 272.047 51.104 271.623 51.104C271.059 51.104 270.552 50.987 270.102 50.753C269.66 50.519 269.309 50.1723 269.049 49.713C268.797 49.2537 268.672 48.699 268.672 48.049V43.837H270.141V47.828C270.141 48.4693 270.301 48.9633 270.622 49.31C270.942 49.648 271.38 49.817 271.935 49.817C272.489 49.817 272.927 49.648 273.248 49.31C273.577 48.9633 273.742 48.4693 273.742 47.828V43.837H275.224ZM276.685 47.386C276.685 46.6667 276.832 46.0297 277.127 45.475C277.43 44.9203 277.838 44.4913 278.349 44.188C278.869 43.876 279.441 43.72 280.065 43.72C280.628 43.72 281.118 43.8327 281.534 44.058C281.959 44.2747 282.297 44.5477 282.548 44.877V43.837H284.043V51H282.548V49.934C282.297 50.272 281.954 50.5537 281.521 50.779C281.088 51.0043 280.594 51.117 280.039 51.117C279.424 51.117 278.86 50.961 278.349 50.649C277.838 50.3283 277.43 49.8863 277.127 49.323C276.832 48.751 276.685 48.1053 276.685 47.386ZM282.548 47.412C282.548 46.918 282.444 46.489 282.236 46.125C282.037 45.761 281.772 45.4837 281.443 45.293C281.114 45.1023 280.758 45.007 280.377 45.007C279.996 45.007 279.64 45.1023 279.311 45.293C278.982 45.475 278.713 45.748 278.505 46.112C278.306 46.4673 278.206 46.892 278.206 47.386C278.206 47.88 278.306 48.3133 278.505 48.686C278.713 49.0587 278.982 49.3447 279.311 49.544C279.649 49.7347 280.004 49.83 280.377 49.83C280.758 49.83 281.114 49.7347 281.443 49.544C281.772 49.3533 282.037 49.076 282.236 48.712C282.444 48.3393 282.548 47.906 282.548 47.412ZM288.876 43.72C289.43 43.72 289.92 43.8327 290.345 44.058C290.778 44.2747 291.116 44.5477 291.359 44.877V43.837H292.854V51.117C292.854 51.7757 292.715 52.3607 292.438 52.872C292.16 53.392 291.757 53.7993 291.229 54.094C290.709 54.3887 290.085 54.536 289.357 54.536C288.386 54.536 287.58 54.3063 286.939 53.847C286.297 53.3963 285.933 52.781 285.847 52.001H287.316C287.428 52.3737 287.667 52.6727 288.031 52.898C288.403 53.132 288.845 53.249 289.357 53.249C289.955 53.249 290.436 53.067 290.8 52.703C291.172 52.339 291.359 51.8103 291.359 51.117V49.921C291.107 50.259 290.765 50.545 290.332 50.779C289.907 51.0043 289.422 51.117 288.876 51.117C288.252 51.117 287.68 50.961 287.16 50.649C286.648 50.3283 286.241 49.8863 285.938 49.323C285.643 48.751 285.496 48.1053 285.496 47.386C285.496 46.6667 285.643 46.0297 285.938 45.475C286.241 44.9203 286.648 44.4913 287.16 44.188C287.68 43.876 288.252 43.72 288.876 43.72ZM291.359 47.412C291.359 46.918 291.255 46.489 291.047 46.125C290.847 45.761 290.583 45.4837 290.254 45.293C289.924 45.1023 289.569 45.007 289.188 45.007C288.806 45.007 288.451 45.1023 288.122 45.293C287.792 45.475 287.524 45.748 287.316 46.112C287.116 46.4673 287.017 46.892 287.017 47.386C287.017 47.88 287.116 48.3133 287.316 48.686C287.524 49.0587 287.792 49.3447 288.122 49.544C288.46 49.7347 288.815 49.83 289.188 49.83C289.569 49.83 289.924 49.7347 290.254 49.544C290.583 49.3533 290.847 49.076 291.047 48.712C291.255 48.3393 291.359 47.906 291.359 47.412ZM301.365 47.243C301.365 47.5117 301.348 47.7543 301.313 47.971H295.84C295.884 48.543 296.096 49.0023 296.477 49.349C296.859 49.6957 297.327 49.869 297.881 49.869C298.679 49.869 299.242 49.5353 299.571 48.868H301.17C300.954 49.5267 300.559 50.0683 299.987 50.493C299.424 50.909 298.722 51.117 297.881 51.117C297.197 51.117 296.581 50.9653 296.035 50.662C295.498 50.35 295.073 49.9167 294.761 49.362C294.458 48.7987 294.306 48.1487 294.306 47.412C294.306 46.6753 294.454 46.0297 294.748 45.475C295.052 44.9117 295.472 44.4783 296.009 44.175C296.555 43.8717 297.179 43.72 297.881 43.72C298.557 43.72 299.16 43.8673 299.688 44.162C300.217 44.4567 300.629 44.8727 300.923 45.41C301.218 45.9387 301.365 46.5497 301.365 47.243ZM299.818 46.775C299.81 46.229 299.615 45.7913 299.233 45.462C298.852 45.1327 298.38 44.968 297.816 44.968C297.305 44.968 296.867 45.1327 296.503 45.462C296.139 45.7827 295.923 46.2203 295.853 46.775H299.818Z" fill="#101010"/>
<path d="M37.46 40.44C26.26 53.68 9.22 52.98 2.15 46.987L1.737 45.086C14.457 41.303 16.757 42.802 26.747 33.596C32.523 26.741 37.347 16.666 37.067 9.336C43.107 9.148 37.067 9.336 41.749 9.148C45.634 18.908 44.104 32.058 37.467 40.438L37.46 40.44Z" fill="#FCEA2B" stroke="#FCEA2B" stroke-width="0.75" stroke-miterlimit="10" stroke-linecap="round" stroke-linejoin="round"/>
<path d="M40.21 9.66C44.736 9.236 45.438 32.32 38.802 40.7C27.002 51.71 14.552 52.8 1.96201 46.062C27.922 51.551 41.432 30.682 40.212 9.662L40.21 9.66Z" fill="#F1B31C" stroke="#F1B31C" stroke-width="0.75" stroke-miterlimit="10" stroke-linecap="round" stroke-linejoin="round"/>
<path d="M39.09 5.2218L38.52 1" stroke="#101010" stroke-width="2" stroke-miterlimit="10" stroke-linecap="round" stroke-linejoin="round"/>
<path d="M12.79 45.629C29.49 42.7702 37.24 34.6661 39.46 18.9697" stroke="#101010" stroke-width="2" stroke-miterlimit="10" stroke-linecap="round" stroke-linejoin="round"/>
<path d="M34.54 43.1491C26.434 50.2465 11.49 52.4489 2.10999 45.8623L1.69699 43.9915C20.117 41.8206 34.477 30.2534 37.057 9.00666C38.162 9.00272 41.702 8.61695 41.702 8.61695C47.301 23.4769 43.456 35.3353 34.538 43.1393L34.54 43.1491Z" stroke="#101010" stroke-width="2" stroke-miterlimit="10" stroke-linecap="round" stroke-linejoin="round"/>
<path d="M70.625 22.05C71.6083 22.2333 72.4167 22.725 73.05 23.525C73.6833 24.325 74 25.2417 74 26.275C74 27.2083 73.7667 28.0333 73.3 28.75C72.85 29.45 72.1917 30 71.325 30.4C70.4583 30.8 69.4333 31 68.25 31H60.725V13.55H67.925C69.1083 13.55 70.125 13.7417 70.975 14.125C71.8417 14.5083 72.4917 15.0417 72.925 15.725C73.375 16.4083 73.6 17.1833 73.6 18.05C73.6 19.0667 73.325 19.9167 72.775 20.6C72.2417 21.2833 71.525 21.7667 70.625 22.05ZM64.225 20.75H67.425C68.2583 20.75 68.9 20.5667 69.35 20.2C69.8 19.8167 70.025 19.275 70.025 18.575C70.025 17.875 69.8 17.3333 69.35 16.95C68.9 16.5667 68.2583 16.375 67.425 16.375H64.225V20.75ZM67.75 28.15C68.6 28.15 69.2583 27.95 69.725 27.55C70.2083 27.15 70.45 26.5833 70.45 25.85C70.45 25.1 70.2 24.5167 69.7 24.1C69.2 23.6667 68.525 23.45 67.675 23.45H64.225V28.15H67.75ZM75.8895 24.025C75.8895 22.625 76.1645 21.3833 76.7145 20.3C77.2811 19.2167 78.0395 18.3833 78.9895 17.8C79.9561 17.2167 81.0311 16.925 82.2145 16.925C83.2478 16.925 84.1478 17.1333 84.9145 17.55C85.6978 17.9667 86.3228 18.4917 86.7895 19.125V17.15H90.3145V31H86.7895V28.975C86.3395 29.625 85.7145 30.1667 84.9145 30.6C84.1311 31.0167 83.2228 31.225 82.1895 31.225C81.0228 31.225 79.9561 30.925 78.9895 30.325C78.0395 29.725 77.2811 28.8833 76.7145 27.8C76.1645 26.7 75.8895 25.4417 75.8895 24.025ZM86.7895 24.075C86.7895 23.225 86.6228 22.5 86.2895 21.9C85.9561 21.2833 85.5061 20.8167 84.9395 20.5C84.3728 20.1667 83.7645 20 83.1145 20C82.4645 20 81.8645 20.1583 81.3145 20.475C80.7645 20.7917 80.3145 21.2583 79.9645 21.875C79.6311 22.475 79.4645 23.1917 79.4645 24.025C79.4645 24.8583 79.6311 25.5917 79.9645 26.225C80.3145 26.8417 80.7645 27.3167 81.3145 27.65C81.8811 27.9833 82.4811 28.15 83.1145 28.15C83.7645 28.15 84.3728 27.9917 84.9395 27.675C85.5061 27.3417 85.9561 26.875 86.2895 26.275C86.6228 25.6583 86.7895 24.925 86.7895 24.075ZM101.408 16.95C103.058 16.95 104.391 17.475 105.408 18.525C106.424 19.5583 106.933 21.0083 106.933 22.875V31H103.433V23.35C103.433 22.25 103.158 21.4083 102.608 20.825C102.058 20.225 101.308 19.925 100.358 19.925C99.3911 19.925 98.6245 20.225 98.0578 20.825C97.5078 21.4083 97.2328 22.25 97.2328 23.35V31H93.7328V17.15H97.2328V18.875C97.6995 18.275 98.2911 17.8083 99.0078 17.475C99.7411 17.125 100.541 16.95 101.408 16.95ZM109.361 24.025C109.361 22.625 109.636 21.3833 110.186 20.3C110.753 19.2167 111.511 18.3833 112.461 17.8C113.428 17.2167 114.503 16.925 115.686 16.925C116.719 16.925 117.619 17.1333 118.386 17.55C119.169 17.9667 119.794 18.4917 120.261 19.125V17.15H123.786V31H120.261V28.975C119.811 29.625 119.186 30.1667 118.386 30.6C117.603 31.0167 116.694 31.225 115.661 31.225C114.494 31.225 113.428 30.925 112.461 30.325C111.511 29.725 110.753 28.8833 110.186 27.8C109.636 26.7 109.361 25.4417 109.361 24.025ZM120.261 24.075C120.261 23.225 120.094 22.5 119.761 21.9C119.428 21.2833 118.978 20.8167 118.411 20.5C117.844 20.1667 117.236 20 116.586 20C115.936 20 115.336 20.1583 114.786 20.475C114.236 20.7917 113.786 21.2583 113.436 21.875C113.103 22.475 112.936 23.1917 112.936 24.025C112.936 24.8583 113.103 25.5917 113.436 26.225C113.786 26.8417 114.236 27.3167 114.786 27.65C115.353 27.9833 115.953 28.15 116.586 28.15C117.236 28.15 117.844 27.9917 118.411 27.675C118.978 27.3417 119.428 26.875 119.761 26.275C120.094 25.6583 120.261 24.925 120.261 24.075ZM140.837 16.95C142.487 16.95 143.82 17.475 144.837 18.525C145.853 19.5583 146.362 21.0083 146.362 22.875V31H142.862V23.35C142.862 22.25 142.587 21.4083 142.037 20.825C141.487 20.225 140.737 19.925 139.787 19.925C138.82 19.925 138.053 20.225 137.487 20.825C136.937 21.4083 136.662 22.25 136.662 23.35V31H133.162V17.15H136.662V18.875C137.128 18.275 137.72 17.8083 138.437 17.475C139.17 17.125 139.97 16.95 140.837 16.95ZM148.79 24.025C148.79 22.625 149.065 21.3833 149.615 20.3C150.182 19.2167 150.94 18.3833 151.89 17.8C152.857 17.2167 153.932 16.925 155.115 16.925C156.148 16.925 157.048 17.1333 157.815 17.55C158.598 17.9667 159.223 18.4917 159.69 19.125V17.15H163.215V31H159.69V28.975C159.24 29.625 158.615 30.1667 157.815 30.6C157.032 31.0167 156.123 31.225 155.09 31.225C153.923 31.225 152.857 30.925 151.89 30.325C150.94 29.725 150.182 28.8833 149.615 27.8C149.065 26.7 148.79 25.4417 148.79 24.025ZM159.69 24.075C159.69 23.225 159.523 22.5 159.19 21.9C158.857 21.2833 158.407 20.8167 157.84 20.5C157.273 20.1667 156.665 20 156.015 20C155.365 20 154.765 20.1583 154.215 20.475C153.665 20.7917 153.215 21.2583 152.865 21.875C152.532 22.475 152.365 23.1917 152.365 24.025C152.365 24.8583 152.532 25.5917 152.865 26.225C153.215 26.8417 153.665 27.3167 154.215 27.65C154.782 27.9833 155.382 28.15 156.015 28.15C156.665 28.15 157.273 27.9917 157.84 27.675C158.407 27.3417 158.857 26.875 159.19 26.275C159.523 25.6583 159.69 24.925 159.69 24.075ZM180.265 16.95C181.915 16.95 183.249 17.475 184.265 18.525C185.282 19.5583 185.79 21.0083 185.79 22.875V31H182.29V23.35C182.29 22.25 182.015 21.4083 181.465 20.825C180.915 20.225 180.165 19.925 179.215 19.925C178.249 19.925 177.482 20.225 176.915 20.825C176.365 21.4083 176.09 22.25 176.09 23.35V31H172.59V17.15H176.09V18.875C176.557 18.275 177.149 17.8083 177.865 17.475C178.599 17.125 179.399 16.95 180.265 16.95ZM188.219 24.025C188.219 22.625 188.494 21.3833 189.044 20.3C189.61 19.2167 190.369 18.3833 191.319 17.8C192.285 17.2167 193.36 16.925 194.544 16.925C195.577 16.925 196.477 17.1333 197.244 17.55C198.027 17.9667 198.652 18.4917 199.119 19.125V17.15H202.644V31H199.119V28.975C198.669 29.625 198.044 30.1667 197.244 30.6C196.46 31.0167 195.552 31.225 194.519 31.225C193.352 31.225 192.285 30.925 191.319 30.325C190.369 29.725 189.61 28.8833 189.044 27.8C188.494 26.7 188.219 25.4417 188.219 24.025ZM199.119 24.075C199.119 23.225 198.952 22.5 198.619 21.9C198.285 21.2833 197.835 20.8167 197.269 20.5C196.702 20.1667 196.094 20 195.444 20C194.794 20 194.194 20.1583 193.644 20.475C193.094 20.7917 192.644 21.2583 192.294 21.875C191.96 22.475 191.794 23.1917 191.794 24.025C191.794 24.8583 191.96 25.5917 192.294 26.225C192.644 26.8417 193.094 27.3167 193.644 27.65C194.21 27.9833 194.81 28.15 195.444 28.15C196.094 28.15 196.702 27.9917 197.269 27.675C197.835 27.3417 198.285 26.875 198.619 26.275C198.952 25.6583 199.119 24.925 199.119 24.075ZM219.694 16.95C221.344 16.95 222.677 17.475 223.694 18.525C224.711 19.5583 225.219 21.0083 225.219 22.875V31H221.719V23.35C221.719 22.25 221.444 21.4083 220.894 20.825C220.344 20.225 219.594 19.925 218.644 19.925C217.677 19.925 216.911 20.225 216.344 20.825C215.794 21.4083 215.519 22.25 215.519 23.35V31H212.019V17.15H215.519V18.875C215.986 18.275 216.577 17.8083 217.294 17.475C218.027 17.125 218.827 16.95 219.694 16.95ZM227.647 24.025C227.647 22.625 227.922 21.3833 228.472 20.3C229.039 19.2167 229.797 18.3833 230.747 17.8C231.714 17.2167 232.789 16.925 233.972 16.925C235.006 16.925 235.906 17.1333 236.672 17.55C237.456 17.9667 238.081 18.4917 238.547 19.125V17.15H242.072V31H238.547V28.975C238.097 29.625 237.472 30.1667 236.672 30.6C235.889 31.0167 234.981 31.225 233.947 31.225C232.781 31.225 231.714 30.925 230.747 30.325C229.797 29.725 229.039 28.8833 228.472 27.8C227.922 26.7 227.647 25.4417 227.647 24.025ZM238.547 24.075C238.547 23.225 238.381 22.5 238.047 21.9C237.714 21.2833 237.264 20.8167 236.697 20.5C236.131 20.1667 235.522 20 234.872 20C234.222 20 233.622 20.1583 233.072 20.475C232.522 20.7917 232.072 21.2583 231.722 21.875C231.389 22.475 231.222 23.1917 231.222 24.025C231.222 24.8583 231.389 25.5917 231.722 26.225C232.072 26.8417 232.522 27.3167 233.072 27.65C233.639 27.9833 234.239 28.15 234.872 28.15C235.522 28.15 236.131 27.9917 236.697 27.675C237.264 27.3417 237.714 26.875 238.047 26.275C238.381 25.6583 238.547 24.925 238.547 24.075Z" fill="#101010"/>
</svg>
